<svg xmlns="http://www.w3.org/2000/svg" viewBox="0 0 800 800" xml:space="preserve"><path fill="#BFC6E4" d="m679.135 448.664-.168.82c-4.162 25.992-6.279 26.263-15.099 26.962l-421.189 23.59c-4.65-.073-9.455-2.399-11.304-6.043l-.826-4.046v-.088L181.807 251.13c-.114-3.802-.815-7.654-1.493-11.39-.305-1.682-.701-3.863-.934-5.68h541.208c5.505 0 10.044 4.223 10.541 9.6l-51.994 205.004z"/><path fill="#1D1751" d="M720.588 215.41H175.815c-.479 0-.845.114-1.293.146-2.212-10.834-4.423-21.667-6.636-32.5-1.15-5.632-1.283-14.532-4.025-19.711-6.324-11.946-29.871-16.682-41.439-21.677l-57.946-25.022C53.572 111.937 44.063 128 55.063 132.75l45.448 19.625c14.461 6.244 30.679 16.268 46.222 20.477-.09 3.718 1.833 8.619 2.553 12.15a697002.574 697002.574 0 0 1 13.884 67.995v.092l48.752 238.761a25.254 25.254 0 0 0 1.652 7.993l1.25 6.125 15.32 75.029c.811 3.971 5.101 6.846 8.992 6.846h436.531c12 0 12.021-18.65 0-18.65H246.731l-10.447-51.164c2.137.421 4.348.66 6.624.66h.26l421.849-23.627.21-.016c23.012-1.819 27.693-14.894 32.091-42.199l52.508-207.036v-1.163c-.001-16.122-13.115-29.238-29.238-29.238zm-573.884-43.057c-.001.01.002.022.002.031-3.37-2.473.454-6.072-.002-.031zm532.431 276.311-.168.82c-4.162 25.992-6.279 26.263-15.099 26.962l-421.189 23.59c-4.65-.073-9.455-2.399-11.304-6.043l-.826-4.046v-.088L181.807 251.13c-.114-3.802-.815-7.654-1.493-11.39-.305-1.682-.701-3.863-.934-5.68h541.208c5.505 0 10.044 4.223 10.541 9.6l-51.994 205.004z"/><path fill="#1D1751" d="M512.079 351.038h-47.561v-47.562c0-12.001-18.65-12.02-18.65 0v47.562h-47.562c-12 0-12.02 18.65 0 18.65h47.562v47.561c0 12 18.65 12.02 18.65 0v-47.561h47.561c12.001 0 12.021-18.65 0-18.65zM399.734 688.82c0-31.06-25.27-56.328-56.328-56.328s-56.328 25.268-56.328 56.328 25.271 56.328 56.328 56.328 56.328-25.268 56.328-56.328zm-94.006 0c0-20.776 16.902-37.678 37.678-37.678 20.776 0 37.678 16.902 37.678 37.678s-16.902 37.678-37.678 37.678c-20.776 0-37.678-16.901-37.678-37.678zM616.109 688.82c0-31.06-25.271-56.328-56.328-56.328-31.058 0-56.328 25.268-56.328 56.328s25.27 56.328 56.328 56.328c31.058 0 56.328-25.268 56.328-56.328zm-94.006 0c0-20.776 16.902-37.678 37.678-37.678 20.776 0 37.678 16.902 37.678 37.678s-16.902 37.678-37.678 37.678c-20.776 0-37.678-16.901-37.678-37.678zM445.736 175.951c.106 11.995 18.756 12.024 18.65 0l-.675-76.252c-.106-11.995-18.757-12.024-18.65 0l.675 76.252zM454.499 54.852c-12.001 0-12.021 18.65 0 18.65 12 0 12.02-18.65 0-18.65zM522.941 191.813l53.441-54.395c8.418-8.569-4.759-21.767-13.188-13.188l-53.441 54.395c-8.418 8.57 4.759 21.767 13.188 13.188zM594.986 96.46c-12 0-12.021 18.65 0 18.65 12 0 12.02-18.65 0-18.65zM400.69 178.237l-54.395-53.441c-8.569-8.419-21.767 4.759-13.188 13.188l54.396 53.441c8.568 8.418 21.766-4.759 13.187-13.188zM314.663 96.867c-12 0-12.021 18.65 0 18.65 12 0 12.02-18.65 0-18.65z"/><circle fill="#83C9EF" cx="343.406" cy="688.82" r="37.678"/><circle fill="#83C9EF" cx="559.781" cy="688.82" r="37.678"/></svg>